<svg xmlns="http://www.w3.org/2000/svg" width="115.668" height="115.67" viewBox="0 0 115.668 115.67">
  <path id="twitter" d="M72.04,14.165A57.835,57.835,0,1,0,129.875,72,57.834,57.834,0,0,0,72.04,14.165Zm28.232,43.466s1.375,6.815-3.559,18.787a39.709,39.709,0,0,1-33.974,24.349c-16.825,1.051-25.887-6.391-25.887-6.391,12.62.971,18.2-4.206,21.194-5.9C46.317,86.934,44.618,78.117,44.618,78.117c1.132.486,4.61.324,6.471-.161-11.485-2.831-11.728-14.4-11.728-14.4s4.286,2.184,6.713,1.779c-11.083-8.413-4.61-19.414-4.61-19.414C56.105,61.94,71.635,61.05,71.635,61.05l.07.1A14.5,14.5,0,0,1,96.459,47.836l.092-.052a18.842,18.842,0,0,0,8.979-3.074,13.208,13.208,0,0,1-6.322,7.471c.018.043.035.086.051.128,1.809-.438,6.662-1.625,7.971-2.017A19,19,0,0,1,100.272,57.631Z" transform="translate(-14.207 -14.165)"/>
</svg>
